<?xml version="1.0" encoding="utf-8"?>
<!DOCTYPE svg PUBLIC "-//W3C//DTD SVG 1.0//EN" "http://www.w3.org/TR/2001/REC-SVG-20010904/DTD/svg10.dtd">
<svg version="1.0" xmlns="http://www.w3.org/2000/svg" width="128px" height="97px" viewBox="0 0 128 97" preserveAspectRatio="xMidYMid meet">
 <g fill="#e7432a">
  <path d="M17.62 96.63 c0 -0.13 0.78 -2.31 1.72 -4.84 1.66 -4.44 5.05 -13.49 8.30 -22.22 2.01 -5.41 5.54 -14.75 6.95 -18.43 0.61 -1.58 1.30 -3.39 1.54 -4.03 l0.44 -1.17 -0.64 -0.67 c-1.41 -1.47 -10.31 -10.89 -11.02 -11.62 -0.40 -0.43 -0.78 -0.75 -0.82 -0.70 -0.10 0.10 -4.19 10.94 -8.21 21.71 -0.53 1.41 -1.59 4.27 -6.27 16.97 -1.36 3.69 -3.55 9.62 -4.86 13.19 -1.32 3.57 -2.84 7.72 -3.38 9.21 -0.78 2.15 -1.04 2.74 -1.18 2.74 -0.18 0 -0.19 -2.38 -0.19 -48.38 l0 -48.38 17.84 0 c16.08 0 17.84 0.02 17.84 0.17 0 0.16 -3.03 8.52 -7.56 20.90 l-1.21 3.28 0.52 0.56 c0.28 0.30 2.39 2.44 4.68 4.77 8.25 8.35 11.08 11.22 16.59 16.86 3.09 3.16 7.84 7.97 10.54 10.70 2.71 2.74 6.89 6.99 9.26 9.46 4.64 4.81 5.32 5.48 9.52 9.46 2.69 2.55 2.72 2.58 2.72 3.02 0 0.29 -0.44 1.64 -1.31 4.01 -2.43 6.65 -4.96 13.59 -4.96 13.63 0 0.02 -4.42 0.04 -9.84 0.04 l-9.84 0 0 -0.31 c0 -0.17 0.94 -2.83 2.10 -5.91 2.46 -6.61 3.35 -9.01 5.30 -14.31 l1.45 -3.95 -0.78 -0.85 c-1.09 -1.22 -9.18 -9.32 -10.57 -10.59 -0.69 -0.63 -1.22 -1.04 -1.32 -1.01 -0.08 0.03 -0.59 1.26 -1.15 2.75 -1.36 3.68 -7.51 20.31 -7.90 21.38 -0.16 0.48 -1.30 3.55 -2.50 6.81 l-2.19 5.95 -9.82 0.03 -9.81 0.02 0 -0.24z"/>
  <path d="M91.68 96.58 c0 -0.15 2.02 -5.71 4.50 -12.35 l4.49 -12.08 -0.63 -0.59 c-0.35 -0.32 -2.18 -2.08 -4.09 -3.89 -1.90 -1.82 -3.87 -3.69 -4.38 -4.16 -3.36 -3.18 -6.01 -5.74 -8.26 -7.95 -2.71 -2.67 -13.16 -13.73 -28.35 -30 -2.38 -2.56 -5.10 -5.47 -6.03 -6.49 l-1.70 -1.84 0.04 -0.59 c0.02 -0.40 0.32 -1.35 0.93 -2.97 0.49 -1.31 1.28 -3.43 1.75 -4.70 0.46 -1.28 1.41 -3.81 2.08 -5.62 l1.22 -3.30 9.64 -0.03 c8.25 -0.02 9.64 0 9.64 0.13 0 0.14 -3.55 9.96 -7.10 19.69 -0.80 2.21 -1.52 4.17 -1.60 4.39 l-0.14 0.39 4.11 3.94 c2.27 2.16 5.17 4.94 6.45 6.17 1.28 1.23 2.37 2.21 2.40 2.16 0.10 -0.10 3.59 -9.50 10.77 -28.99 1.04 -2.82 2.11 -5.75 2.38 -6.51 l0.50 -1.38 9.76 0 c7.75 0 9.77 0.03 9.77 0.14 0 0.06 -0.45 1.39 -1.03 2.94 -5.57 15.31 -7.84 21.52 -12.32 33.78 -1.87 5.11 -5.02 13.62 -5.15 13.94 -0.08 0.18 -0.06 0.30 0.03 0.43 0.38 0.48 10.59 11.36 11.54 12.27 l0.65 0.65 0.12 -0.32 c0.18 -0.45 4.28 -11.51 5.46 -14.69 0.55 -1.48 2.31 -6.25 3.92 -10.59 1.60 -4.34 3.76 -10.15 4.78 -12.92 1.03 -2.77 2.19 -5.92 2.59 -7.03 0.41 -1.10 1.77 -4.80 3.04 -8.22 1.25 -3.42 2.61 -7.07 2.98 -8.11 0.39 -1.04 0.72 -1.98 0.76 -2.09 0.04 -0.13 0.17 -0.18 0.42 -0.18 l0.37 0 0 48.43 0 48.43 -18.16 0 -18.16 0 0 -0.28z"/>
 </g>
 <g fill="#fffffe">
  <path d="M0 96.71 c0 -0.18 1.07 -3.12 6.11 -16.77 2.06 -5.59 4.18 -11.33 4.70 -12.76 4.16 -11.31 5.85 -15.83 10.76 -28.86 2.45 -6.52 2.18 -5.89 2.54 -5.89 0.24 0 0.46 0.17 1.09 0.84 0.44 0.46 3.25 3.44 6.26 6.61 3.01 3.17 5.47 5.84 5.49 5.95 0.03 0.19 -0.18 0.79 -2.14 5.90 -1.41 3.69 -4.99 13.20 -6.84 18.16 -3.14 8.40 -7.25 19.44 -8.65 23.16 l-1.43 3.82 -8.94 0 c-7.70 0 -8.95 -0.02 -8.95 -0.15z"/>
  <path d="M37.02 96.19 c0.25 -0.66 3.48 -9.43 4.88 -13.22 1.92 -5.23 6.56 -17.77 7.54 -20.38 l1.11 -2.97 0.46 -0.03 c0.55 -0.04 0.27 -0.28 4.12 3.43 2.58 2.49 8.98 9.05 8.98 9.22 0 0.15 -4.21 11.60 -7.45 20.25 l-1.61 4.32 -9.15 0.03 -9.14 0.02 0.25 -0.67z"/>
  <path d="M74.05 96.81 c0 -0.05 2.48 -6.88 4.91 -13.51 0.81 -2.19 1.47 -4.05 1.47 -4.12 0 -0.06 -1.23 -1.28 -2.72 -2.69 -4.21 -3.98 -4.89 -4.65 -9.52 -9.46 -2.38 -2.46 -6.55 -6.72 -9.26 -9.46 -2.70 -2.74 -7.45 -7.55 -10.54 -10.70 -3.09 -3.15 -8.74 -8.89 -12.54 -12.76 -9.18 -9.31 -9.35 -9.49 -9.35 -9.65 0 -0.08 0.56 -1.69 1.25 -3.57 2.57 -7.04 3.87 -10.59 5.71 -15.64 l1.89 -5.19 9.19 -0.03 9.20 -0.02 -0.12 0.29 c-0.15 0.40 -2.15 5.81 -3.30 8.90 -0.49 1.34 -1.29 3.50 -1.77 4.81 -0.50 1.31 -0.91 2.50 -0.94 2.65 -0.05 0.30 -0.11 0.24 7.69 8.59 15.17 16.25 25.63 27.33 28.35 30 2.81 2.77 3.62 3.55 15.52 14.85 1.06 1.01 1.92 1.91 1.92 2 -0.01 0.10 -2.06 5.70 -4.57 12.44 l-4.57 12.27 -8.94 0.03 c-4.92 0.01 -8.94 0 -8.94 -0.03z"/>
  <path d="M101.94 63.17 c-0.92 -0.94 -3.01 -3.14 -4.64 -4.89 -1.63 -1.75 -3.76 -4.03 -4.72 -5.07 -0.97 -1.03 -1.76 -1.94 -1.76 -2.01 0 -0.15 0.48 -1.46 2.65 -7.31 0.86 -2.35 2.06 -5.58 2.65 -7.19 0.58 -1.60 1.95 -5.33 3.03 -8.27 1.71 -4.67 5.75 -15.77 9.24 -25.35 l1.09 -3.03 9.16 -0.03 9.15 -0.02 -0.17 0.40 c-0.09 0.23 -0.48 1.24 -0.84 2.25 -1.43 3.89 -5.29 14.37 -6 16.27 -0.40 1.10 -1.57 4.26 -2.59 7.03 -1.02 2.77 -3.18 8.58 -4.78 12.92 -1.61 4.35 -3.37 9.11 -3.92 10.59 -0.95 2.56 -5.11 13.79 -5.52 14.90 -0.11 0.28 -0.23 0.51 -0.26 0.51 -0.04 0 -0.82 -0.77 -1.74 -1.70z"/>
  <path d="M74.10 35.21 c-1.37 -1.32 -4.38 -4.19 -6.68 -6.40 -2.29 -2.19 -4.17 -4.03 -4.17 -4.09 0 -0.04 0.78 -2.22 1.73 -4.81 0.94 -2.59 2.96 -8.13 4.46 -12.29 l2.76 -7.57 9.25 -0.03 c5.09 -0.01 9.25 0.01 9.25 0.04 0 0.10 -0.77 2.22 -2.95 8.15 -5.33 14.45 -9.83 26.62 -10.56 28.54 -0.18 0.48 -0.40 0.86 -0.46 0.86 -0.08 0 -1.25 -1.08 -2.63 -2.41z"/>
 </g>
</svg>